<?xml version="1.0" standalone="no"?>
<!DOCTYPE svg PUBLIC "-//W3C//DTD SVG 20010904//EN"
 "http://www.w3.org/TR/2001/REC-SVG-20010904/DTD/svg10.dtd">
<svg version="1.0" xmlns="http://www.w3.org/2000/svg"
 width="800.000000pt" height="800.000000pt" viewBox="0 0 800.000000 800.000000"
 preserveAspectRatio="xMidYMid meet">
<metadata>
Created by potrace 1.14, written by Peter Selinger 2001-2017
</metadata>
<g transform="translate(0.000000,800.000000) scale(0.100000,-0.100000)"
fill="#000000" stroke="none">
<path d="M3740 7994 c-1002 -72 -1898 -485 -2595 -1196 -635 -646 -1014 -1443
-1122 -2353 -24 -210 -24 -680 0 -890 92 -775 373 -1450 860 -2064 128 -162
446 -480 608 -608 613 -486 1278 -764 2059 -860 204 -25 696 -25 900 0 781 96
1453 377 2066 864 140 112 485 457 597 597 426 536 701 1134 821 1786 48 258
60 412 60 730 0 318 -12 472 -60 730 -226 1223 -1014 2275 -2130 2840 -422
215 -861 347 -1344 405 -130 16 -594 28 -720 19z m-1482 -2738 l2 -679 88 84
c135 131 240 194 408 245 80 25 105 28 249 28 184 1 268 -16 410 -83 260 -123
384 -328 414 -686 7 -70 11 -465 11 -952 l0 -833 -324 0 -324 0 -5 823 c-5
846 -9 939 -46 1023 -40 91 -135 166 -240 190 -120 29 -236 14 -358 -46 -161
-79 -241 -217 -272 -470 -7 -52 -11 -361 -11 -802 l0 -718 -330 0 -330 0 0
1773 c0 976 3 1777 7 1780 4 4 151 6 327 5 l321 -3 3 -679z m2552 0 l0 -684
83 81 c187 185 379 272 627 284 351 17 649 -137 774 -400 97 -204 98 -213 103
-1264 l5 -893 -331 0 -330 0 -4 863 c-3 735 -6 870 -19 918 -43 160 -160 253
-334 266 -216 17 -403 -86 -489 -269 -75 -158 -85 -293 -85 -1135 l0 -643
-325 0 -325 0 0 1780 0 1780 325 0 325 0 0 -684z"/>
</g>
</svg>
