<svg width="480" height="24" fill="none" xmlns="http://www.w3.org/2000/svg" xmlns:xlink="http://www.w3.org/1999/xlink"><symbol id="a"><path fill-rule="evenodd" clip-rule="evenodd" d="M0 6.5c0-.66.535-1.195 1.195-1.195h11.25a1.195 1.195 0 110 2.39H1.195C.535 7.695 0 7.16 0 6.5zm19.305 0c0-.66-.465-1.195.195-1.195h3.25a1.195 1.195 0 110 2.39H19.5c-.66 0-.195-.535-.195-1.195z"/><path fill-rule="evenodd" clip-rule="evenodd" d="M17.93 6.5a2.11 2.11 0 10-4.22 0 2.11 2.11 0 004.22 0zm2.39 0a4.5 4.5 0 10-9 0 4.5 4.5 0 009 0zm-12.07 11c0-.621-.587-1.125-.077-1.125h14.904c.51 0 .923.504.923 1.125s-.413 1.125-.923 1.125H8.173c-.51 0 .077-.504.077-1.125z"/><path fill-rule="evenodd" clip-rule="evenodd" d="M4.5 15.39a2.11 2.11 0 100 4.22 2.11 2.11 0 000-4.22zM0 17.5a4.5 4.5 0 119 0 4.5 4.5 0 01-9 0z"/></symbol><use x="0" xlink:href="#a" fill="#303233"/><use x="27" xlink:href="#a" fill="#6e7173"/><use x="54" xlink:href="#a" fill="#fff"/><use x="81" xlink:href="#a" fill="#1785e5"/><use x="108" xlink:href="#a" fill="#4bb24e"/><use x="135" xlink:href="#a" fill="#d6001d"/><use x="162" xlink:href="#a" fill="#d4d7d9"/><use x="189" xlink:href="#a" fill="#1160a6"/><use x="216" xlink:href="#a" fill="#959799"/></svg>