<svg width="360" height="16" xmlns:xlink="http://www.w3.org/1999/xlink" xmlns="http://www.w3.org/2000/svg"><symbol id="a"><path d="M13.2 11.8L10 8.6c.6-.9 1-2 1-3.1C11 2.5 8.5 0 5.5 0S0 2.5 0 5.5 2.5 11 5.5 11c1.2 0 2.2-.4 3.1-1l3.2 3.2 1.4-1.4zM2 5.5C2 3.6 3.6 2 5.5 2S9 3.6 9 5.5 7.4 9 5.5 9 2 7.4 2 5.5z"/></symbol><use xlink:href="#a" x="1" y="1" fill="#303233"/><use xlink:href="#a" x="19" fill="#6e7173"/><use xlink:href="#a" x="37" y="1" fill="#fff"/><use xlink:href="#a" x="145" fill="#959799"/></svg>